G04*
G04 #@! TF.GenerationSoftware,Altium Limited,Altium Designer,25.8.1 (18)*
G04*
G04 Layer_Physical_Order=1*
G04 Layer_Color=255*
%FSLAX44Y44*%
%MOMM*%
G71*
G04*
G04 #@! TF.SameCoordinates,A11727E3-4EE6-487C-9337-FEDB4605177B*
G04*
G04*
G04 #@! TF.FilePolarity,Positive*
G04*
G01*
G75*
%ADD13C,1.5000*%
G36*
X1192225Y340642D02*
X1195303Y340339D01*
X1197998Y339521D01*
X1200481Y338194D01*
X1202658Y336408D01*
X1204445Y334231D01*
X1205772Y331747D01*
X1206590Y329052D01*
X1206893Y325974D01*
Y-325975D01*
X1206590Y-329053D01*
X1205772Y-331748D01*
X1204445Y-334231D01*
X1202658Y-336408D01*
X1200481Y-338194D01*
X1197998Y-339522D01*
X1195303Y-340339D01*
X1192225Y-340642D01*
X-1189724Y-340642D01*
X-1192802Y-340339D01*
X-1195497Y-339521D01*
X-1197980Y-338194D01*
X-1200157Y-336408D01*
X-1201944Y-334230D01*
X-1203271Y-331747D01*
X-1204089Y-329052D01*
X-1204392Y-325974D01*
Y325975D01*
X-1204089Y329053D01*
X-1203271Y331748D01*
X-1201944Y334231D01*
X-1200157Y336408D01*
X-1197980Y338194D01*
X-1195497Y339522D01*
X-1192802Y340339D01*
X-1189724Y340643D01*
X1192225Y340642D01*
D02*
G37*
%LPC*%
G36*
X927950Y112500D02*
X922051D01*
X916202Y111730D01*
X910504Y110203D01*
X905054Y107946D01*
X899946Y104996D01*
X895266Y101405D01*
X891095Y97234D01*
X887504Y92554D01*
X884554Y87446D01*
X882297Y81996D01*
X880770Y76298D01*
X880000Y70449D01*
Y64550D01*
X880770Y58702D01*
X882297Y53004D01*
X884554Y47554D01*
X887504Y42446D01*
X891095Y37766D01*
X895266Y33595D01*
X899946Y30004D01*
X905054Y27054D01*
X910504Y24797D01*
X916202Y23270D01*
X922051Y22500D01*
X927950D01*
X933798Y23270D01*
X939496Y24797D01*
X944946Y27054D01*
X950054Y30004D01*
X954734Y33595D01*
X958905Y37766D01*
X962496Y42446D01*
X965446Y47554D01*
X967703Y53004D01*
X969230Y58702D01*
X970000Y64550D01*
Y70449D01*
X969230Y76298D01*
X967703Y81996D01*
X965446Y87446D01*
X962496Y92554D01*
X958905Y97234D01*
X954734Y101405D01*
X950054Y104996D01*
X944946Y107946D01*
X939496Y110203D01*
X933798Y111730D01*
X927950Y112500D01*
D02*
G37*
G36*
X557949D02*
X552051D01*
X546202Y111730D01*
X540504Y110203D01*
X535054Y107946D01*
X529946Y104996D01*
X525266Y101405D01*
X521095Y97234D01*
X517504Y92554D01*
X514554Y87446D01*
X512297Y81996D01*
X510770Y76298D01*
X510000Y70449D01*
Y64550D01*
X510770Y58702D01*
X512297Y53004D01*
X514554Y47554D01*
X517504Y42446D01*
X521095Y37766D01*
X525266Y33595D01*
X529946Y30004D01*
X535054Y27054D01*
X540504Y24797D01*
X546202Y23270D01*
X552051Y22500D01*
X557949D01*
X563798Y23270D01*
X569496Y24797D01*
X574946Y27054D01*
X580054Y30004D01*
X584734Y33595D01*
X588905Y37766D01*
X592496Y42446D01*
X595446Y47554D01*
X597703Y53004D01*
X599230Y58702D01*
X600000Y64550D01*
Y70449D01*
X599230Y76298D01*
X597703Y81996D01*
X595446Y87446D01*
X592496Y92554D01*
X588905Y97234D01*
X584734Y101405D01*
X580054Y104996D01*
X574946Y107946D01*
X569496Y110203D01*
X563798Y111730D01*
X557949Y112500D01*
D02*
G37*
G36*
X187949D02*
X182050D01*
X176202Y111730D01*
X170504Y110203D01*
X165054Y107946D01*
X159946Y104996D01*
X155266Y101405D01*
X151095Y97234D01*
X147504Y92554D01*
X144554Y87446D01*
X142297Y81996D01*
X140770Y76298D01*
X140000Y70449D01*
Y64550D01*
X140770Y58702D01*
X142297Y53004D01*
X144554Y47554D01*
X147504Y42446D01*
X151095Y37766D01*
X155266Y33595D01*
X159946Y30004D01*
X165054Y27054D01*
X170504Y24797D01*
X176202Y23270D01*
X182050Y22500D01*
X187949D01*
X193798Y23270D01*
X199496Y24797D01*
X204946Y27054D01*
X210054Y30004D01*
X214734Y33595D01*
X218905Y37766D01*
X222496Y42446D01*
X225446Y47554D01*
X227703Y53004D01*
X229230Y58702D01*
X230000Y64550D01*
Y70449D01*
X229230Y76298D01*
X227703Y81996D01*
X225446Y87446D01*
X222496Y92554D01*
X218905Y97234D01*
X214734Y101405D01*
X210054Y104996D01*
X204946Y107946D01*
X199496Y110203D01*
X193798Y111730D01*
X187949Y112500D01*
D02*
G37*
G36*
X-182051D02*
X-187950D01*
X-193798Y111730D01*
X-199496Y110203D01*
X-204946Y107946D01*
X-210054Y104996D01*
X-214734Y101405D01*
X-218905Y97234D01*
X-222496Y92554D01*
X-225446Y87446D01*
X-227703Y81996D01*
X-229230Y76298D01*
X-230000Y70449D01*
Y64550D01*
X-229230Y58702D01*
X-227703Y53004D01*
X-225446Y47554D01*
X-222496Y42446D01*
X-218905Y37766D01*
X-214734Y33595D01*
X-210054Y30004D01*
X-204946Y27054D01*
X-199496Y24797D01*
X-193798Y23270D01*
X-187950Y22500D01*
X-182051D01*
X-176202Y23270D01*
X-170504Y24797D01*
X-165054Y27054D01*
X-159946Y30004D01*
X-155266Y33595D01*
X-151095Y37766D01*
X-147504Y42446D01*
X-144554Y47554D01*
X-142297Y53004D01*
X-140770Y58702D01*
X-140000Y64550D01*
Y70449D01*
X-140770Y76298D01*
X-142297Y81996D01*
X-144554Y87446D01*
X-147504Y92554D01*
X-151095Y97234D01*
X-155266Y101405D01*
X-159946Y104996D01*
X-165054Y107946D01*
X-170504Y110203D01*
X-176202Y111730D01*
X-182051Y112500D01*
D02*
G37*
G36*
X-552051D02*
X-557949D01*
X-563798Y111730D01*
X-569496Y110203D01*
X-574946Y107946D01*
X-580054Y104996D01*
X-584734Y101405D01*
X-588905Y97234D01*
X-592496Y92554D01*
X-595446Y87446D01*
X-597703Y81996D01*
X-599230Y76298D01*
X-600000Y70449D01*
Y64550D01*
X-599230Y58702D01*
X-597703Y53004D01*
X-595446Y47554D01*
X-592496Y42446D01*
X-588905Y37766D01*
X-584734Y33595D01*
X-580054Y30004D01*
X-574946Y27054D01*
X-569496Y24797D01*
X-563798Y23270D01*
X-557949Y22500D01*
X-552051D01*
X-546202Y23270D01*
X-540504Y24797D01*
X-535054Y27054D01*
X-529946Y30004D01*
X-525266Y33595D01*
X-521095Y37766D01*
X-517504Y42446D01*
X-514554Y47554D01*
X-512297Y53004D01*
X-510770Y58702D01*
X-510000Y64550D01*
Y70449D01*
X-510770Y76298D01*
X-512297Y81996D01*
X-514554Y87446D01*
X-517504Y92554D01*
X-521095Y97234D01*
X-525266Y101405D01*
X-529946Y104996D01*
X-535054Y107946D01*
X-540504Y110203D01*
X-546202Y111730D01*
X-552051Y112500D01*
D02*
G37*
G36*
X-922051D02*
X-927950D01*
X-933798Y111730D01*
X-939496Y110203D01*
X-944946Y107946D01*
X-950054Y104996D01*
X-954734Y101405D01*
X-958905Y97234D01*
X-962496Y92554D01*
X-965446Y87446D01*
X-967703Y81996D01*
X-969230Y76298D01*
X-970000Y70449D01*
Y64550D01*
X-969230Y58702D01*
X-967703Y53004D01*
X-965446Y47554D01*
X-962496Y42446D01*
X-958905Y37766D01*
X-954734Y33595D01*
X-950054Y30004D01*
X-944946Y27054D01*
X-939496Y24797D01*
X-933798Y23270D01*
X-927950Y22500D01*
X-922051D01*
X-916202Y23270D01*
X-910504Y24797D01*
X-905054Y27054D01*
X-899946Y30004D01*
X-895266Y33595D01*
X-891095Y37766D01*
X-887504Y42446D01*
X-884554Y47554D01*
X-882297Y53004D01*
X-880770Y58702D01*
X-880000Y64550D01*
Y70449D01*
X-880770Y76298D01*
X-882297Y81996D01*
X-884554Y87446D01*
X-887504Y92554D01*
X-891095Y97234D01*
X-895266Y101405D01*
X-899946Y104996D01*
X-905054Y107946D01*
X-910504Y110203D01*
X-916202Y111730D01*
X-922051Y112500D01*
D02*
G37*
G36*
X1020000Y-171162D02*
X1014604Y-171515D01*
X1009301Y-172570D01*
X1004180Y-174308D01*
X999331Y-176700D01*
X994835Y-179704D01*
X990769Y-183269D01*
X987204Y-187335D01*
X984200Y-191831D01*
X981808Y-196681D01*
X980070Y-201801D01*
X979015Y-207104D01*
X978661Y-212500D01*
X979015Y-217896D01*
X980070Y-223199D01*
X981808Y-228320D01*
X984200Y-233169D01*
X987204Y-237665D01*
X990769Y-241731D01*
X994835Y-245296D01*
X999331Y-248300D01*
X1004180Y-250692D01*
X1007185Y-251712D01*
X1008809Y-253691D01*
X1011207Y-255659D01*
X1013944Y-257122D01*
X1016913Y-258022D01*
X1020000Y-258326D01*
X1023087Y-258022D01*
X1026056Y-257122D01*
X1028793Y-255659D01*
X1031191Y-253691D01*
X1032815Y-251712D01*
X1035819Y-250692D01*
X1040669Y-248300D01*
X1045165Y-245296D01*
X1049231Y-241731D01*
X1052796Y-237665D01*
X1055800Y-233169D01*
X1058192Y-228320D01*
X1059930Y-223199D01*
X1060985Y-217896D01*
X1061338Y-212500D01*
X1060985Y-207104D01*
X1059930Y-201801D01*
X1058192Y-196681D01*
X1055800Y-191831D01*
X1052796Y-187335D01*
X1049231Y-183269D01*
X1045165Y-179704D01*
X1040669Y-176700D01*
X1035819Y-174308D01*
X1030699Y-172570D01*
X1025396Y-171515D01*
X1020000Y-171162D01*
D02*
G37*
G36*
X829499Y-171162D02*
X824103Y-171515D01*
X818799Y-172570D01*
X813679Y-174308D01*
X808829Y-176700D01*
X804333Y-179704D01*
X800268Y-183270D01*
X796703Y-187335D01*
X793698Y-191831D01*
X791307Y-196681D01*
X789569Y-201801D01*
X788514Y-207104D01*
X788160Y-212500D01*
X788514Y-217896D01*
X789569Y-223199D01*
X791307Y-228320D01*
X793698Y-233169D01*
X796703Y-237666D01*
X800268Y-241731D01*
X804333Y-245296D01*
X808829Y-248300D01*
X813679Y-250692D01*
X816684Y-251712D01*
X818308Y-253691D01*
X820706Y-255659D01*
X823442Y-257122D01*
X826411Y-258022D01*
X829499Y-258326D01*
X832586Y-258022D01*
X835555Y-257122D01*
X838291Y-255659D01*
X840689Y-253691D01*
X842314Y-251712D01*
X845318Y-250692D01*
X850168Y-248300D01*
X854664Y-245296D01*
X858729Y-241731D01*
X862295Y-237666D01*
X865299Y-233169D01*
X867690Y-228320D01*
X869428Y-223199D01*
X870483Y-217896D01*
X870837Y-212500D01*
X870483Y-207104D01*
X869428Y-201801D01*
X867690Y-196681D01*
X865299Y-191831D01*
X862295Y-187335D01*
X858729Y-183270D01*
X854664Y-179704D01*
X850168Y-176700D01*
X845318Y-174308D01*
X840198Y-172570D01*
X834894Y-171515D01*
X829499Y-171162D01*
D02*
G37*
%LPD*%
D13*
X0Y330000D02*
D03*
Y-330000D02*
D03*
X1190000Y320000D02*
D03*
X-1190000Y-320000D02*
D03*
Y320000D02*
D03*
X1190000Y-320000D02*
D03*
M02*
