M48
;Layer_Color=9474304
;FILE_FORMAT=4:4
METRIC,LZ
;TYPE=PLATED
T01F00S00C1.1000
T02F00S00C1.4000
T03F00S00C1.5000
T04F00S00C3.2000
T05F00S00C14.0000
;TYPE=NON_PLATED
T06F00S00C8.0000
%
T01
X-02085572Y00158841
Y00198841
X-02025903Y00139171
X-02005903Y0010453
X-01945Y00117001
X-01910359Y00097001
X-01863262Y00138614
X-01824625Y00128261
X-01803214Y00198839
X-01768573Y00218839
X-01715572Y00198841
Y00158841
X-01655903Y00139171
X-01645551Y00100534
X-01575001Y00117001
X-01540359Y00097001
X-01781373Y00280349
X-01411374Y00280349
X-01398573Y00218838
X-01433214Y00198839
X-01345572Y00198841
Y00158841
X-01285903Y00139171
X-0127555Y00100534
X-01205Y00117001
X-01170359Y00097001
X-01454625Y0012826
X-01493262Y00138613
X-01123262Y00138614
X-01084625Y00128261
X-01063214Y00198839
X-01028573Y00218839
X-00975572Y00198841
Y00158841
X-00915903Y00139171
X-0090555Y00100534
X-00835Y00117001
X-00800359Y00097001
X-00753262Y00138614
X-01041373Y00280349
X-00671373
X-00658573Y00218839
X-00693214Y00198839
X-00605572Y00198841
Y00158841
X-00545903Y00139171
X-0053555Y00100534
X-00465Y00124
X-00436716Y00095716
X-00383262Y00138614
X-00714625Y00128261
X-00344625Y00128261
X-00323214Y00198839
X-00288573Y00218839
X-0023618Y00198491
Y00158491
X-0017651Y00138821
X-00166158Y00100184
X-00095608Y00116651
X-00060967Y00096651
X-00013869Y00138263
X00024768Y0012791
X00046178Y00198489
X-00301373Y0028
X00068019Y00279999
X00084816Y00208841
X00096303Y00308283
X0006618Y0039615
X0004618Y00361509
X-0001349Y00421179
X-00023843Y00459816
X-00095Y00444
X-00129641Y00464
X-00303213Y003965
X-00323213Y00361859
X-00273089Y00308285
X-00382883Y00421529
X-00393235Y00460166
X-00464392Y0044435
X-00499033Y0046435
X-00673213Y003965
X-00693213Y00361859
X-00643089Y00308633
X-00752883Y00421529
X-00763235Y00460166
X-00835Y00448
X-00869641Y00468
X-01043213Y003965
X-01063213Y00361859
X-01013089Y00308633
X-01122883Y00421529
X-01133235Y00460166
X-01204Y00447
X-01232284Y00475284
X-01413213Y003965
X-01433213Y00361859
X-01376733Y00300349
X-01492883Y00421528
Y00461528
X-01574393Y0044435
X-01602677Y00472634
X-01783213Y003965
X-01803213Y00361859
X-01746732Y00300349
X-01862883Y00421529
X-01873235Y00460166
X-01944392Y00443369
X-01972677Y00471654
T02
X-02031603Y0023
X-02045Y0028
X-01995Y00193397
X-01945Y0018
X-01895Y00193397
X-01906109Y0024111
X-01858397Y0023
X-01845Y0028
X-01675
X-01661603Y0023
X-01625Y00193397
X-01575Y0018
X-01525Y00193397
X-01536109Y0024111
X-01488397Y0023
X-01475Y0028
X-01305
X-01291603Y0023
X-01255Y00193397
X-01205Y0018
X-01155Y00193397
X-01166109Y0024111
X-01118397Y0023
X-01104999Y0028
X-00935001
X-00921603Y0023
X-00885Y00193397
X-00835Y0018
X-00785Y00193397
X-00796109Y0024111
X-00748397Y0023
X-00734999Y0028
X-00565
X-00551603Y0023
X-00515Y00193397
X-00465Y0018
X-00415Y00193397
X-00426109Y0024111
X-00378397Y0023
X-00365Y0028
X-00195
X-00181603Y0023
X-00145Y00193397
X-00095Y0018
X-00045Y00193397
X-00056109Y0024111
X-00008397Y0023
X00005001Y0028
X-00008397Y0033
X-00045Y00366603
X-00095Y0038
X-00378397Y0033
X-00415Y00366603
X-00465Y0038
X-00748397Y0033
X-00785Y00366603
X-00835Y0038
X-01118397Y0033
X-01155Y00366603
X-01205Y0038
X-01525Y00366603
X-01488397Y0033
X-01575Y0038
X-01858397Y0033
X-01895Y00366603
X-01945Y0038
T03
X-00293Y-00002
X00096Y0003
T04
X-0214Y-000575
X-0102
X001
Y004825
X-0102
X-0214
T05
X-00190501Y-0
X-00000001Y-0
T06
X-01945Y0028
X-01575
X-01205
X-00835
X-00465
X-00095
M30
