M48
;Layer_Color=9474304
;FILE_FORMAT=4:4
METRIC,LZ
;TYPE=PLATED
T01F00S00C1.1000
T02F00S00C1.4000
T03F00S00C1.5000
T04F00S00C3.2000
T05F00S00C14.0000
;TYPE=NON_PLATED
T06F00S00C8.0000
%
T01
X-0204Y0007
Y0011
X-0197
Y0007
X-019
Y0011
X-0183
X-0183Y0007
X-0171Y0007
Y0011
X-0164
Y0007
X-0157Y0007
Y0011
X-015
Y0007
X-0143
X-0143Y0011
X-0134Y0011
Y0007
X-0127
Y0011
X-012Y0011
Y0007
X-0113
Y0011
X-0106
Y0007
X-0098Y0007
Y0011
X-0091
Y0007
X-0084Y0007
Y0011
X-0077
Y0007
X-007Y0007
Y0011
X-0063
X-0063Y0007
X-0056
X-0056Y0011
X-0049
X-0049Y0007
X-0042Y0007
X-0042Y0011
X-0035
X-0035Y0007
X-0028Y0011
X-0024Y0011
X-0019Y0011
X-0015
X-001
X-0006Y0011
X-0001Y0011
X0003
X-0027Y0017
X-0027Y0021
X-0023Y0047
X-0023Y0051
X-0016Y0051
Y0047
X-0009
Y0051
X-0002Y0051
Y0047
X-004
X-004Y0051
X-0048Y0051
X-0048Y0047
X-0055
X-0055Y0051
X-0062Y0051
X-0062Y0047
X-0071
Y0051
X-0078Y0051
X-0078Y0047
X-0085
X-0085Y0051
X-0092Y0051
X-0092Y0047
X-0112
Y0051
X-012Y0051
Y0047
X-0127
Y0051
X-0134Y0051
Y0047
X-0144Y0047
X-0144Y0051
X-0151Y0051
Y0047
X-0158
Y0051
X-0165Y0051
Y0047
X-0177Y0047
X-0177Y0051
X-0184
X-0184Y0047
X-0191
Y0051
X-0197Y0051
Y0047
X-0204
Y0051
T02
X-02031603Y0023
X-02045Y0028
X-01995Y00193397
X-01945Y0018
X-01895Y00193397
X-01906109Y0024111
X-01858397Y0023
X-01845Y0028
X-01675
X-01661603Y0023
X-01625Y00193397
X-01575Y0018
X-01525Y00193397
X-01536109Y0024111
X-01488397Y0023
X-01475Y0028
X-01305
X-01291603Y0023
X-01255Y00193397
X-01205Y0018
X-01155Y00193397
X-01166109Y0024111
X-01118397Y0023
X-01104999Y0028
X-00935001
X-00921603Y0023
X-00885Y00193397
X-00835Y0018
X-00785Y00193397
X-00796109Y0024111
X-00748397Y0023
X-00734999Y0028
X-00565
X-00551603Y0023
X-00515Y00193397
X-00465Y0018
X-00415Y00193397
X-00426109Y0024111
X-00378397Y0023
X-00365Y0028
X-00195
X-00181603Y0023
X-00145Y00193397
X-00095Y0018
X-00045Y00193397
X-00056109Y0024111
X-00008397Y0023
X00005001Y0028
X-00008397Y0033
X-00045Y00366603
X-00095Y0038
X-00378397Y0033
X-00415Y00366603
X-00465Y0038
X-00748397Y0033
X-00785Y00366603
X-00835Y0038
X-01118397Y0033
X-01155Y00366603
X-01205Y0038
X-01525Y00366603
X-01488397Y0033
X-01575Y0038
X-01858397Y0033
X-01895Y00366603
X-01945Y0038
T03
X-00293Y-00002
X00096Y0003
T04
X-0214Y-000575
X-0102
X001
Y004825
X-0102
X-0214
T05
X-00190501Y-0
X-00000001Y-0
T06
X-01945Y0028
X-01575
X-01205
X-00835
X-00465
X-00095
M30
