G04*
G04 #@! TF.GenerationSoftware,Altium Limited,Altium Designer,25.8.1 (18)*
G04*
G04 Layer_Color=8388736*
%FSLAX44Y44*%
%MOMM*%
G71*
G04*
G04 #@! TF.SameCoordinates,C759EE04-39D3-4D0C-B5B0-0D6C31F46B31*
G04*
G04*
G04 #@! TF.FilePolarity,Negative*
G04*
G01*
G75*
%ADD10C,6.2000*%
%ADD11C,3.3000*%
%ADD12C,2.0000*%
%ADD13C,2.3032*%
%ADD14P,3.2572X4X270.0*%
D10*
X-1020000Y-57500D02*
D03*
Y482500D02*
D03*
X-2140000D02*
D03*
X100000D02*
D03*
Y-57500D02*
D03*
X-2140000D02*
D03*
D11*
X-293000Y-2000D02*
D03*
X96000Y30000D02*
D03*
D12*
X-10000Y110000D02*
D03*
X30000D02*
D03*
X-350000Y70000D02*
D03*
X-350000Y110000D02*
D03*
X-700000D02*
D03*
Y70000D02*
D03*
X-20000Y510000D02*
D03*
Y470000D02*
D03*
X-100000Y110000D02*
D03*
X-60000Y110000D02*
D03*
X-400000Y510000D02*
D03*
X-400000Y470000D02*
D03*
X-420000Y110000D02*
D03*
X-420000Y70000D02*
D03*
X-710000Y510000D02*
D03*
Y470000D02*
D03*
X-770000Y110000D02*
D03*
Y70000D02*
D03*
X-90000Y510000D02*
D03*
Y470000D02*
D03*
X-190000Y110000D02*
D03*
X-150000D02*
D03*
X-480000Y510000D02*
D03*
X-480000Y470000D02*
D03*
X-490000Y110000D02*
D03*
X-490000Y70000D02*
D03*
X-780000Y510000D02*
D03*
X-780000Y470000D02*
D03*
X-840000Y110000D02*
D03*
Y70000D02*
D03*
X-160000Y510000D02*
D03*
Y470000D02*
D03*
X-280000Y110000D02*
D03*
X-240000Y110000D02*
D03*
X-550000Y510000D02*
D03*
X-550000Y470000D02*
D03*
X-560000Y110000D02*
D03*
X-560000Y70000D02*
D03*
X-850000Y510000D02*
D03*
X-850000Y470000D02*
D03*
X-910000Y110000D02*
D03*
Y70000D02*
D03*
X-230000Y510000D02*
D03*
X-230000Y470000D02*
D03*
X-270000Y210000D02*
D03*
X-270000Y170000D02*
D03*
X-620000Y510000D02*
D03*
X-620000Y470000D02*
D03*
X-630000Y110000D02*
D03*
X-630000Y70000D02*
D03*
X-920000Y510000D02*
D03*
X-920000Y470000D02*
D03*
X-980000Y110000D02*
D03*
Y70000D02*
D03*
X-1060000Y70000D02*
D03*
Y110000D02*
D03*
X-1430000Y110000D02*
D03*
X-1430000Y70000D02*
D03*
X-1770000Y510000D02*
D03*
X-1770000Y470000D02*
D03*
X-1120000D02*
D03*
Y510000D02*
D03*
X-1130000Y70000D02*
D03*
Y110000D02*
D03*
X-1440000Y470000D02*
D03*
X-1440000Y510000D02*
D03*
X-1500000Y70000D02*
D03*
Y110000D02*
D03*
X-1840000Y470000D02*
D03*
X-1840000Y510000D02*
D03*
X-1830000Y70000D02*
D03*
X-1830000Y110000D02*
D03*
X-1200000Y470000D02*
D03*
Y510000D02*
D03*
Y70000D02*
D03*
Y110000D02*
D03*
X-1510000Y470000D02*
D03*
Y510000D02*
D03*
X-1570000Y70000D02*
D03*
Y110000D02*
D03*
X-1910000Y470000D02*
D03*
Y510000D02*
D03*
X-1900000Y70000D02*
D03*
Y110000D02*
D03*
X-1270000Y470000D02*
D03*
Y510000D02*
D03*
X-1270000Y70000D02*
D03*
Y110000D02*
D03*
X-1580000Y470000D02*
D03*
Y510000D02*
D03*
X-1640000Y70000D02*
D03*
Y110000D02*
D03*
X-1970000Y470000D02*
D03*
Y510000D02*
D03*
Y70000D02*
D03*
Y110000D02*
D03*
X-1340000Y470000D02*
D03*
Y510000D02*
D03*
Y70000D02*
D03*
Y110000D02*
D03*
X-1650000Y470000D02*
D03*
Y510000D02*
D03*
X-1710000Y70000D02*
D03*
Y110000D02*
D03*
X-2040000Y470000D02*
D03*
Y510000D02*
D03*
Y70000D02*
D03*
Y110000D02*
D03*
D13*
X-1906109Y241110D02*
D03*
X-1845000Y280000D02*
D03*
X-1858397Y330000D02*
D03*
X-1895000Y366603D02*
D03*
X-2045000Y280000D02*
D03*
X-2031603Y230000D02*
D03*
X-1995000Y193397D02*
D03*
X-1945000Y180000D02*
D03*
X-1895000Y193397D02*
D03*
X-1858397Y230000D02*
D03*
X-1488397D02*
D03*
X-1525000Y193397D02*
D03*
X-1575000Y180000D02*
D03*
X-1625000Y193397D02*
D03*
X-1661603Y230000D02*
D03*
X-1675000Y280000D02*
D03*
X-1525000Y366603D02*
D03*
X-1488397Y330000D02*
D03*
X-1475000Y280000D02*
D03*
X-1536109Y241110D02*
D03*
X-796109D02*
D03*
X-734999Y280000D02*
D03*
X-748397Y330000D02*
D03*
X-785000Y366603D02*
D03*
X-935001Y280000D02*
D03*
X-921603Y230000D02*
D03*
X-885000Y193397D02*
D03*
X-835000Y180000D02*
D03*
X-785000Y193397D02*
D03*
X-748397Y230000D02*
D03*
X-1118397D02*
D03*
X-1155000Y193397D02*
D03*
X-1205000Y180000D02*
D03*
X-1255000Y193397D02*
D03*
X-1291603Y230000D02*
D03*
X-1305000Y280000D02*
D03*
X-1155000Y366603D02*
D03*
X-1118397Y330000D02*
D03*
X-1104999Y280000D02*
D03*
X-1166109Y241110D02*
D03*
X-426109D02*
D03*
X-365000Y280000D02*
D03*
X-378397Y330000D02*
D03*
X-415000Y366603D02*
D03*
X-565000Y280000D02*
D03*
X-551603Y230000D02*
D03*
X-515000Y193397D02*
D03*
X-465000Y180000D02*
D03*
X-415000Y193397D02*
D03*
X-378397Y230000D02*
D03*
X-8397D02*
D03*
X-45000Y193397D02*
D03*
X-95000Y180000D02*
D03*
X-145000Y193397D02*
D03*
X-181603Y230000D02*
D03*
X-195000Y280000D02*
D03*
X-45000Y366603D02*
D03*
X-8397Y330000D02*
D03*
X5001Y280000D02*
D03*
X-56109Y241110D02*
D03*
D14*
X-1945000Y380000D02*
D03*
X-1575000D02*
D03*
X-835000D02*
D03*
X-1205000D02*
D03*
X-465000D02*
D03*
X-95000D02*
D03*
M02*
