G04*
G04 #@! TF.GenerationSoftware,Altium Limited,Altium Designer,25.8.1 (18)*
G04*
G04 Layer_Physical_Order=1*
G04 Layer_Color=255*
%FSLAX44Y44*%
%MOMM*%
G71*
G04*
G04 #@! TF.SameCoordinates,1D371D4C-DA1A-466D-921E-FAD8641E28B0*
G04*
G04*
G04 #@! TF.FilePolarity,Positive*
G04*
G01*
G75*
%ADD15C,0.0500*%
%ADD16C,6.0000*%
%ADD17C,2.1000*%
%ADD18P,2.9699X4X270.0*%
%ADD19C,1.8000*%
%ADD20C,3.0000*%
%ADD21C,2.0000*%
D15*
X70000Y0D02*
G03*
X70000Y0I-70000J0D01*
G01*
D16*
X-1020000Y-57500D02*
D03*
Y482500D02*
D03*
X-2140000D02*
D03*
X100000D02*
D03*
Y-57500D02*
D03*
X-2140000D02*
D03*
D17*
X-1906109Y241110D02*
D03*
X-1845000Y280000D02*
D03*
X-1858397Y330000D02*
D03*
X-1895000Y366603D02*
D03*
X-2045000Y280000D02*
D03*
X-2031603Y230000D02*
D03*
X-1995000Y193397D02*
D03*
X-1945000Y180000D02*
D03*
X-1895000Y193397D02*
D03*
X-1858397Y230000D02*
D03*
X-1488397D02*
D03*
X-1525000Y193397D02*
D03*
X-1575000Y180000D02*
D03*
X-1625000Y193397D02*
D03*
X-1661603Y230000D02*
D03*
X-1675000Y280000D02*
D03*
X-1525000Y366603D02*
D03*
X-1488397Y330000D02*
D03*
X-1475000Y280000D02*
D03*
X-1536109Y241110D02*
D03*
X-796109D02*
D03*
X-734999Y280000D02*
D03*
X-748397Y330000D02*
D03*
X-785000Y366603D02*
D03*
X-935001Y280000D02*
D03*
X-921603Y230000D02*
D03*
X-885000Y193397D02*
D03*
X-835000Y180000D02*
D03*
X-785000Y193397D02*
D03*
X-748397Y230000D02*
D03*
X-1118397D02*
D03*
X-1155000Y193397D02*
D03*
X-1205000Y180000D02*
D03*
X-1255000Y193397D02*
D03*
X-1291603Y230000D02*
D03*
X-1305000Y280000D02*
D03*
X-1155000Y366603D02*
D03*
X-1118397Y330000D02*
D03*
X-1104999Y280000D02*
D03*
X-1166109Y241110D02*
D03*
X-426109D02*
D03*
X-365000Y280000D02*
D03*
X-378397Y330000D02*
D03*
X-415000Y366603D02*
D03*
X-565000Y280000D02*
D03*
X-551603Y230000D02*
D03*
X-515000Y193397D02*
D03*
X-465000Y180000D02*
D03*
X-415000Y193397D02*
D03*
X-378397Y230000D02*
D03*
X-8397D02*
D03*
X-45000Y193397D02*
D03*
X-95000Y180000D02*
D03*
X-145000Y193397D02*
D03*
X-181603Y230000D02*
D03*
X-195000Y280000D02*
D03*
X-45000Y366603D02*
D03*
X-8397Y330000D02*
D03*
X5001Y280000D02*
D03*
X-56109Y241110D02*
D03*
D18*
X-1945000Y380000D02*
D03*
X-1575000D02*
D03*
X-835000D02*
D03*
X-1205000D02*
D03*
X-465000D02*
D03*
X-95000D02*
D03*
D19*
X46178Y198489D02*
D03*
X84816Y208841D02*
D03*
X-288573Y218839D02*
D03*
X-323214Y198839D02*
D03*
X-693214Y198839D02*
D03*
X-658573Y218839D02*
D03*
X96303Y308283D02*
D03*
X68019Y279999D02*
D03*
X-13869Y138263D02*
D03*
X24768Y127910D02*
D03*
X-273089Y308285D02*
D03*
X-301373Y280000D02*
D03*
X-383262Y138614D02*
D03*
X-344625Y128261D02*
D03*
X-643089Y308633D02*
D03*
X-671373Y280349D02*
D03*
X-753262Y138614D02*
D03*
X-714625Y128261D02*
D03*
X66180Y396150D02*
D03*
X46180Y361509D02*
D03*
X-95608Y116651D02*
D03*
X-60967Y96651D02*
D03*
X-303213Y396500D02*
D03*
X-323213Y361859D02*
D03*
X-465000Y124000D02*
D03*
X-436716Y95716D02*
D03*
X-673213Y396500D02*
D03*
X-693213Y361859D02*
D03*
X-835000Y117001D02*
D03*
X-800359Y97001D02*
D03*
X-23843Y459816D02*
D03*
X-13490Y421179D02*
D03*
X-176510Y138821D02*
D03*
X-166158Y100184D02*
D03*
X-393235Y460166D02*
D03*
X-382883Y421529D02*
D03*
X-545903Y139171D02*
D03*
X-535550Y100534D02*
D03*
X-763235Y460166D02*
D03*
X-752883Y421529D02*
D03*
X-915903Y139171D02*
D03*
X-905550Y100534D02*
D03*
X-129641Y464000D02*
D03*
X-95000Y444000D02*
D03*
X-236180Y198491D02*
D03*
Y158491D02*
D03*
X-499033Y464350D02*
D03*
X-464392Y444350D02*
D03*
X-605572Y198841D02*
D03*
Y158841D02*
D03*
X-869641Y468000D02*
D03*
X-835000Y448000D02*
D03*
X-975572Y198841D02*
D03*
Y158841D02*
D03*
X-1028573Y218839D02*
D03*
X-1063214Y198839D02*
D03*
X-1433214Y198839D02*
D03*
X-1398573Y218838D02*
D03*
X-1768573Y218839D02*
D03*
X-1803214Y198839D02*
D03*
X-1041373Y280349D02*
D03*
X-1013089Y308633D02*
D03*
X-1084625Y128261D02*
D03*
X-1123262Y138614D02*
D03*
X-1411374Y280349D02*
D03*
X-1376733Y300349D02*
D03*
X-1454625Y128260D02*
D03*
X-1493262Y138613D02*
D03*
X-1781373Y280349D02*
D03*
X-1746732Y300349D02*
D03*
X-1824625Y128261D02*
D03*
X-1863262Y138614D02*
D03*
X-1063213Y361859D02*
D03*
X-1043213Y396500D02*
D03*
X-1170359Y97001D02*
D03*
X-1205000Y117001D02*
D03*
X-1433213Y361859D02*
D03*
X-1413213Y396500D02*
D03*
X-1540359Y97001D02*
D03*
X-1575001Y117001D02*
D03*
X-1803213Y361859D02*
D03*
X-1783213Y396500D02*
D03*
X-1910359Y97001D02*
D03*
X-1945000Y117001D02*
D03*
X-1122883Y421529D02*
D03*
X-1133235Y460166D02*
D03*
X-1275550Y100534D02*
D03*
X-1285903Y139171D02*
D03*
X-1492883Y421528D02*
D03*
Y461528D02*
D03*
X-1645551Y100534D02*
D03*
X-1655903Y139171D02*
D03*
X-1862883Y421529D02*
D03*
X-1873235Y460166D02*
D03*
X-2005903Y104530D02*
D03*
X-2025903Y139171D02*
D03*
X-1204000Y447000D02*
D03*
X-1232284Y475284D02*
D03*
X-1345572Y158841D02*
D03*
Y198841D02*
D03*
X-1574393Y444350D02*
D03*
X-1602677Y472634D02*
D03*
X-1715572Y158841D02*
D03*
Y198841D02*
D03*
X-1944392Y443369D02*
D03*
X-1972677Y471654D02*
D03*
X-2085572Y158841D02*
D03*
Y198841D02*
D03*
D20*
X-293000Y-2000D02*
D03*
X96000Y30000D02*
D03*
D21*
X-69359Y88259D02*
X-60967Y96651D01*
X-107368Y88259D02*
X-69359D01*
X-95608Y131392D02*
X-55808D01*
X84816Y196113D02*
Y208841D01*
X58020Y230000D02*
X96303Y268283D01*
X44000Y200667D02*
Y230000D01*
X5002Y279999D02*
X68019D01*
X5001Y280000D02*
X5002Y279999D01*
X-95000Y380000D02*
Y444000D01*
X-95000Y444000D01*
X18000Y356397D02*
Y430700D01*
Y357000D02*
X41671D01*
X67303Y296271D02*
Y337772D01*
X75180Y345649D02*
Y387150D01*
X67303Y296271D02*
X68019Y295555D01*
Y279999D02*
Y295555D01*
X66180Y396150D02*
X75180Y387150D01*
X-33679Y109263D02*
X6121D01*
X24768Y127910D01*
X-126095Y106985D02*
X-107368Y88259D01*
X-176510Y138821D02*
X-144821D01*
X-126095Y106985D02*
Y120095D01*
X-144821Y138821D02*
X-126095Y120095D01*
X-145000Y139000D02*
Y193397D01*
Y139000D02*
X-144821Y138821D01*
X-511046Y435350D02*
X-473392D01*
X-464392Y421084D02*
Y444350D01*
X-164501Y271719D02*
X-117782Y225000D01*
X-45000Y366603D02*
X-13490Y398112D01*
X-23843Y459816D02*
X-11115D01*
X18000Y430700D01*
X41671Y357000D02*
X46180Y361509D01*
X-8397Y330000D02*
X18000Y356397D01*
X-8397Y230000D02*
X58020D01*
X44000Y200667D02*
X46178Y198489D01*
X96303Y268283D02*
Y308283D01*
X-45000Y193397D02*
X-44729D01*
X-29255Y177923D02*
X-22882D01*
X-44729Y193397D02*
X-29255Y177923D01*
X-11166Y140967D02*
Y166207D01*
X-13869Y138263D02*
X-11166Y140967D01*
X54909Y166207D02*
X84816Y196113D01*
X-11166Y166207D02*
X54909D01*
X-95608Y131392D02*
X-95000Y132000D01*
X-55808Y131392D02*
X-33679Y109263D01*
X-95608Y116651D02*
Y131392D01*
X-95000Y132000D02*
Y180000D01*
X-195284Y210206D02*
Y216048D01*
X-181603Y229729D01*
X-236180Y198491D02*
X-207000D01*
X-195284Y210206D01*
X-207000Y128299D02*
X-178886Y100184D01*
X-181603Y229729D02*
Y230000D01*
X-505396Y499000D02*
X-364701D01*
X-473392Y435350D02*
X-464392Y444350D01*
X-528033Y452338D02*
X-511046Y435350D01*
X-534501Y271719D02*
X-487782Y225000D01*
X-634263Y186957D02*
Y210737D01*
X-565000Y280000D01*
X-565093Y216239D02*
X-551412Y229921D01*
X-605988Y198682D02*
X-576809D01*
Y129065D02*
X-548119Y100375D01*
X-576809Y129065D02*
Y193589D01*
Y198682D02*
X-565093Y210398D01*
Y216239D01*
X-403488Y109614D02*
X-363529D01*
X-465416Y159868D02*
X-465191Y160093D01*
X-378206Y330191D02*
X-351809Y356589D01*
X-328138Y357191D02*
X-323629Y361700D01*
X-393652Y460007D02*
X-380349D01*
X-351809Y357191D02*
X-328138D01*
X-400400Y421370D02*
X-383299D01*
X-414809Y366794D02*
X-383299Y398304D01*
X-487782Y225000D02*
X-442219D01*
X-834392Y421315D02*
Y444350D01*
X-634263Y186957D02*
X-605988Y158682D01*
X-514630Y139012D02*
X-495201Y119583D01*
X-515000Y193397D02*
X-514809Y193588D01*
X-515000Y139383D02*
Y193397D01*
X-495201Y111272D02*
X-475772Y91842D01*
X-546319Y139012D02*
X-514630D01*
X-515000Y139383D02*
X-514630Y139012D01*
X-363529Y109614D02*
X-345041Y128102D01*
X-465416Y116842D02*
Y131584D01*
X-380349Y460007D02*
X-351809Y431467D01*
Y356589D02*
Y431467D01*
X-465000Y420476D02*
X-464392Y421084D01*
X-117782Y225000D02*
X-72219D01*
X-425458Y131584D02*
X-403488Y109614D01*
X-495201Y111272D02*
Y119583D01*
X-475772Y91842D02*
X-435775D01*
X-434309Y93309D01*
X-294213Y337459D02*
Y386925D01*
X-364807Y280190D02*
X-301790D01*
X-378397Y230000D02*
X-299734D01*
X-414809Y170160D02*
Y193206D01*
Y170160D02*
X-383262Y138614D01*
X-323214Y198661D01*
Y198839D01*
X-299734Y230000D02*
X-288573Y218839D01*
X-287376Y220035D01*
Y253997D02*
X-273089Y268284D01*
X-287376Y220035D02*
Y253997D01*
X-303629Y396341D02*
X-294213Y386925D01*
X-301790Y280417D02*
Y329882D01*
X-294213Y337459D01*
X-490291Y473350D02*
X-452380D01*
X-383299Y398304D02*
Y421370D01*
X-452380Y473350D02*
X-400400Y421370D01*
X-499450Y464192D02*
X-490291Y473350D01*
X-771600Y421370D02*
X-753299D01*
X-863641Y474000D02*
X-824230D01*
X-784809Y366794D02*
X-753299Y398304D01*
X-664213Y337459D02*
Y386925D01*
X-671790Y280417D02*
Y329882D01*
X-734807Y280190D02*
X-671790D01*
Y329882D02*
X-664213Y337459D01*
X-643089Y256645D02*
Y308285D01*
X-658573Y218839D02*
Y241161D01*
X-643089Y256645D01*
X-669734Y230000D02*
X-658573Y218839D01*
X-693214Y198661D02*
Y198839D01*
X-753262Y138614D02*
X-693214Y198661D01*
X-785000Y193397D02*
X-784809Y193206D01*
Y170160D02*
X-753262Y138614D01*
X-748397Y230000D02*
X-669734D01*
X-673629Y396341D02*
X-664213Y386925D01*
X-865781Y107041D02*
X-846933Y88193D01*
X-885000Y139383D02*
Y193397D01*
X-884809Y193588D01*
X-771959Y109614D02*
X-733529D01*
X-835000Y380000D02*
Y420708D01*
X-898641Y480012D02*
X-879653Y499000D01*
X-763652Y460007D02*
X-750349D01*
X-698138Y357191D02*
X-693629Y361700D01*
X-733529Y109614D02*
X-715041Y128102D01*
X-835191Y179538D02*
X-834809Y179920D01*
X-846933Y88193D02*
X-809425D01*
X-916319Y139012D02*
X-884630D01*
X-865781Y120164D01*
X-885000Y139383D02*
X-884630Y139012D01*
X-809425Y88193D02*
X-800775Y96842D01*
X-865781Y107041D02*
Y120164D01*
X-1004263Y186957D02*
X-975988Y158682D01*
X-1108701Y503000D02*
X-904501Y298800D01*
X-1205000Y418853D02*
X-1204392Y419461D01*
X-824230Y474000D02*
X-771600Y421370D01*
X-753299Y398304D02*
Y421370D01*
X-721809Y356589D02*
Y431467D01*
Y357191D02*
X-698138D01*
X-750349Y460007D02*
X-721809Y431467D01*
X-748206Y330191D02*
X-721809Y356589D01*
X-835416Y141001D02*
X-835191Y141227D01*
X-835416Y116842D02*
Y131584D01*
X-793929D02*
X-771959Y109614D01*
X-975988Y198682D02*
X-946809D01*
Y129065D02*
Y193589D01*
Y198682D02*
X-935093Y210398D01*
Y216239D02*
X-921412Y229921D01*
X-935093Y210398D02*
Y216239D01*
X-921412Y229921D02*
Y230191D01*
X-1004263Y186957D02*
Y210737D01*
X-935001Y280000D01*
X-1260000Y463804D02*
X-1243196Y447000D01*
X-857782Y225000D02*
X-812219D01*
X-1243764Y503000D02*
X-1108701D01*
X-534501Y271719D02*
Y298800D01*
X-442219Y225000D02*
X-425918Y241301D01*
X-1034213Y337459D02*
Y386925D01*
X-1043629Y396341D02*
X-1034213Y386925D01*
X-1041790Y329882D02*
X-1034213Y337459D01*
X-1104807Y280190D02*
X-1041790D01*
X-1028573Y218839D02*
Y241161D01*
X-1013089Y256645D02*
Y308285D01*
X-1028573Y241161D02*
X-1013089Y256645D01*
X-1039734Y230000D02*
X-1028573Y218839D01*
X-1063214Y198661D02*
Y198839D01*
X-1123262Y138614D02*
X-1063214Y198661D01*
X-1154809Y170160D02*
Y193206D01*
Y170160D02*
X-1123262Y138614D01*
X-1118397Y230000D02*
X-1039734D01*
X-1041790Y280417D02*
Y329882D01*
X-1235781Y107041D02*
Y120164D01*
X-1179425Y88193D02*
X-1170775Y96842D01*
X-1255000Y139383D02*
Y193397D01*
X-1163929Y131584D02*
X-1141959Y109614D01*
X-1243196Y447000D02*
X-1204000D01*
X-1204392Y419461D02*
Y444350D01*
X-1091809Y356589D02*
Y431467D01*
X-1120349Y460007D02*
X-1091809Y431467D01*
X-1205191Y141227D02*
Y179538D01*
X-1103529Y109614D02*
X-1085041Y128102D01*
X-1255000Y193397D02*
X-1254809Y193588D01*
X-1286319Y139012D02*
X-1254630D01*
X-1216933Y88193D02*
X-1179425D01*
X-1255000Y139383D02*
X-1254630Y139012D01*
X-1235781Y107041D02*
X-1216933Y88193D01*
X-1254630Y139012D02*
X-1235781Y120164D01*
X-1374263Y186957D02*
X-1345988Y158682D01*
X-1274501Y271719D02*
X-1227782Y225000D01*
X-1476620Y500918D02*
X-1274501Y298799D01*
X-1154809Y366794D02*
X-1123299Y398304D01*
X-1091809Y357191D02*
X-1068138D01*
X-1133652Y460007D02*
X-1120349D01*
X-1068138Y357191D02*
X-1063629Y361700D01*
X-1118206Y330191D02*
X-1091809Y356589D01*
X-1205416Y116842D02*
Y131584D01*
X-1141959Y109614D02*
X-1103529D01*
X-1316809Y198682D02*
X-1305093Y210398D01*
X-1291412Y229921D02*
Y230191D01*
X-1305093Y216239D02*
X-1291412Y229921D01*
X-1316809Y129065D02*
X-1288119Y100375D01*
X-1345988Y198682D02*
X-1316809D01*
X-1305093Y210398D02*
Y216239D01*
X-1374263Y210737D02*
X-1305000Y280000D01*
X-1374263Y186957D02*
Y210737D01*
X-1227782Y225000D02*
X-1182219D01*
X-1630961Y460918D02*
Y484350D01*
X-1182219Y225000D02*
X-1165918Y241301D01*
X-812219Y225000D02*
X-795918Y241301D01*
X-1563031Y474000D02*
X-1510401Y421370D01*
X-1493299D01*
X-1524809Y366794D02*
X-1493299Y398304D01*
X-1404213Y337459D02*
Y386926D01*
X-1413629Y396341D02*
X-1404213Y386926D01*
X-1411790Y280417D02*
Y329883D01*
X-1404213Y337459D01*
X-1398573Y218839D02*
Y241161D01*
X-1409734Y230000D02*
X-1398573Y218839D01*
X-1433214Y198661D02*
Y198839D01*
X-1493262Y138614D02*
X-1433214Y198661D01*
X-1525000Y193397D02*
X-1524809Y193206D01*
Y170160D02*
X-1493262Y138614D01*
X-1488397Y230000D02*
X-1409734D01*
X-1474807Y280190D02*
X-1411790D01*
X-1549425Y88193D02*
X-1540775Y96842D01*
X-1625000Y139383D02*
Y193397D01*
Y139383D02*
X-1624630Y139012D01*
X-1575416Y131584D02*
Y141001D01*
X-1490350Y460007D02*
X-1461809Y431466D01*
X-1503652Y460007D02*
X-1490350D01*
X-1575416Y131584D02*
X-1533930D01*
X-1575191Y179538D02*
X-1574809Y179920D01*
X-1605782Y107041D02*
X-1586933Y88193D01*
X-1656319Y139012D02*
X-1624630D01*
X-1625000Y193397D02*
X-1624809Y193588D01*
X-1624630Y139012D02*
X-1605782Y120164D01*
X-1586933Y88193D02*
X-1549425D01*
X-1605782Y107041D02*
Y120164D01*
X-1744263Y186957D02*
X-1715988Y158682D01*
X-1996757Y461679D02*
Y482240D01*
X-1945000Y380000D02*
Y444000D01*
X-1599641Y474000D02*
X-1563031D01*
X-1493299Y398304D02*
Y421370D01*
X-1438138Y357191D02*
X-1433629Y361700D01*
X-1461809Y357191D02*
X-1438138D01*
X-1461809Y356589D02*
Y431466D01*
X-1488206Y330191D02*
X-1461809Y356589D01*
X-1511960Y109613D02*
X-1473530D01*
X-1575416Y116842D02*
Y131584D01*
X-1473530Y109613D02*
X-1455041Y128102D01*
X-1675093Y210398D02*
Y216239D01*
X-1686809Y129064D02*
X-1658120Y100375D01*
X-1661412Y229921D02*
Y230191D01*
X-1686809Y198682D02*
X-1675093Y210398D01*
X-1715988Y198682D02*
X-1686809D01*
X-1658120Y100375D02*
X-1645966D01*
X-1744263Y186957D02*
Y210737D01*
X-1675000Y280000D01*
X-1945000Y380383D02*
Y444000D01*
X-1644500Y271719D02*
X-1597782Y225000D01*
X-1552219D01*
X-1881380Y421370D02*
X-1863299D01*
X-1934011Y474000D02*
X-1881380Y421370D01*
X-1863299Y398304D02*
Y421370D01*
X-1774213Y337459D02*
Y386925D01*
X-1781790Y280417D02*
Y329882D01*
X-1783629Y396341D02*
X-1774213Y386925D01*
X-1768573Y218839D02*
Y241161D01*
X-1753089Y256645D02*
Y300349D01*
X-1768573Y241161D02*
X-1753089Y256645D01*
X-1779734Y230000D02*
X-1768573Y218839D01*
X-1803214Y198661D02*
Y198839D01*
X-1863262Y138614D02*
X-1803214Y198661D01*
X-1895000Y193397D02*
X-1894809Y193206D01*
Y170160D02*
Y193206D01*
X-1858397Y230000D02*
X-1779734D01*
X-1781790Y329882D02*
X-1774213Y337459D01*
X-1844807Y280190D02*
X-1781790D01*
X-1994630Y139012D02*
X-1975781Y120164D01*
Y107041D02*
Y120164D01*
X-1995000Y139383D02*
Y193397D01*
X-1903929Y131584D02*
X-1881959Y109614D01*
X-1552219Y225000D02*
X-1535918Y241301D01*
X-1945000Y444000D02*
X-1944809Y444191D01*
X-1873652Y460007D02*
X-1860349D01*
X-1831809Y357191D02*
X-1808138D01*
X-1945191Y141227D02*
Y179538D01*
X-1945416Y131584D02*
X-1903929D01*
X-1956933Y88193D02*
X-1919425D01*
X-2026319Y139012D02*
X-1994630D01*
X-1919425Y88193D02*
X-1910775Y96842D01*
X-1995000Y193397D02*
X-1994809Y193588D01*
X-1975781Y107041D02*
X-1956933Y88193D01*
X-1995000Y139383D02*
X-1994630Y139012D01*
X-2114263Y210737D02*
X-2045000Y280000D01*
X-1924028Y223191D02*
X-1905918Y241301D01*
X-1974809Y223191D02*
X-1924028D01*
X-1894809Y366794D02*
X-1863299Y398304D01*
X-1969641Y474000D02*
X-1934011D01*
X-1831809Y356589D02*
Y431467D01*
X-1808138Y357191D02*
X-1803629Y361700D01*
X-1860349Y460007D02*
X-1831809Y431467D01*
X-1858206Y330191D02*
X-1831809Y356589D01*
X-1843529Y109614D02*
X-1825041Y128102D01*
X-1945416Y116842D02*
Y131584D01*
X-1881959Y109614D02*
X-1843529D01*
X-2085988Y198682D02*
X-2062921D01*
X-2031412Y230191D01*
X-2114263Y186957D02*
Y210737D01*
Y186957D02*
X-2085988Y158682D01*
X-2007809Y256191D02*
Y298000D01*
Y256191D02*
X-1974809Y223191D01*
X-1996757Y461679D02*
X-1982651Y447574D01*
X-1844701Y499000D02*
X-1644500Y298800D01*
Y271719D02*
Y298800D01*
X-1575000Y380000D02*
Y443743D01*
X-869641Y468000D02*
X-863641Y474000D01*
X-1123299Y398304D02*
Y421370D01*
X-734701Y499000D02*
X-534501Y298800D01*
X-164501Y271719D02*
Y298800D01*
X-528033Y476362D02*
X-505396Y499000D01*
X-528033Y452338D02*
Y476362D01*
X-72219Y225000D02*
X-56109Y241110D01*
X-364701Y499000D02*
X-164501Y298800D01*
X-465000Y380000D02*
Y420476D01*
X-1205000Y380000D02*
Y418853D01*
X-904501Y271719D02*
Y298800D01*
X-1260000Y486764D02*
X-1243764Y503000D01*
X-1260000Y463804D02*
Y486764D01*
X-904501Y271719D02*
X-857782Y225000D01*
X-1630961Y460918D02*
X-1614393Y444350D01*
X-1574393D01*
X-1630961Y484350D02*
X-1614393Y500918D01*
X-1274501Y271719D02*
Y298799D01*
X-1614393Y500918D02*
X-1476620D01*
X-1982651Y447574D02*
X-1948597D01*
X-1945000Y380383D02*
X-1944809Y380192D01*
X-1979996Y499000D02*
X-1844701D01*
X-1945000Y444000D02*
X-1944809Y444191D01*
X-1996757Y482240D02*
X-1979996Y499000D01*
X-1948597Y447574D02*
X-1944392Y443369D01*
X-2043809Y334000D02*
X-2007809Y298000D01*
X-2095000Y334000D02*
X-2043809D01*
X-2169000Y260000D02*
X-2095000Y334000D01*
X-2169000Y115000D02*
Y260000D01*
Y115000D02*
X-2053000Y-1000D01*
X-298000D01*
X-105203Y389496D02*
X-95707Y380000D01*
X125303Y62009D02*
Y378038D01*
X-114496Y389496D02*
X-105203D01*
X-95707Y380000D02*
X-95000D01*
X91734Y28440D02*
X125303Y62009D01*
X-158641Y433641D02*
X-114496Y389496D01*
X-158641Y476012D02*
X-136653Y498000D01*
X5342D02*
X125303Y378038D01*
X-158641Y433641D02*
Y476012D01*
X-136653Y498000D02*
X5342D01*
X-129641Y464000D02*
X-120641Y473000D01*
X-82988D01*
X-13490Y398112D02*
Y421179D01*
X-82988Y473000D02*
X-31166Y421179D01*
X-13490D01*
X-262411Y184722D02*
X-236180Y158491D01*
X-262411Y184722D02*
Y212589D01*
X-195192Y279809D01*
X-465416Y131584D02*
Y159868D01*
X-465191Y179538D02*
X-464809Y179920D01*
X-465416Y131584D02*
X-425458D01*
X-465191Y160093D02*
Y179538D01*
X-835416Y131584D02*
Y141001D01*
Y131584D02*
X-793929D01*
X-835191Y141227D02*
Y179538D01*
X-1205416Y131584D02*
Y141001D01*
Y131584D02*
X-1163929D01*
X-1205416Y141001D02*
X-1205191Y141227D01*
Y179538D02*
X-1204809Y179920D01*
X-1231320Y474320D02*
X-1229641Y476000D01*
X-1191988D01*
X-1137358Y421370D01*
X-1123299D01*
X-1376733Y263001D02*
Y300349D01*
X-1398573Y241161D02*
X-1376733Y263001D01*
X-1575191Y141226D02*
Y179538D01*
X-1575416Y141001D02*
X-1575191Y141226D01*
X-1533930Y131584D02*
X-1511960Y109613D01*
X-1945416Y141001D02*
X-1945191Y141227D01*
X-1945416Y131584D02*
Y141001D01*
X-1945191Y179538D02*
X-1944809Y179920D01*
X-2062921Y177202D02*
Y198682D01*
Y177202D02*
X-2056572Y170853D01*
Y128828D02*
Y170853D01*
Y128828D02*
X-2037915Y110171D01*
X-2011544D01*
X-2005903Y104530D01*
X-1894809Y170160D02*
X-1863262Y138614D01*
X-1675093Y216239D02*
X-1661412Y229921D01*
X-1686809Y129064D02*
Y193589D01*
X-1524809Y170160D02*
Y193206D01*
X-1316809Y129065D02*
Y193589D01*
X-1288119Y100375D02*
X-1275966D01*
X-1155000Y193397D02*
X-1154809Y193206D01*
X-946809Y129065D02*
X-918119Y100375D01*
X-905966D01*
X-784809Y170160D02*
Y193206D01*
X-881653Y439000D02*
X-857629D01*
X-848629Y448000D02*
X-835000D01*
X-835000Y420708D02*
X-834392Y421315D01*
X-857629Y439000D02*
X-848629Y448000D01*
X-898641Y455988D02*
Y480012D01*
X-879653Y499000D02*
X-734701D01*
X-898641Y455988D02*
X-881653Y439000D01*
X-273089Y268284D02*
Y308285D01*
X-415000Y193397D02*
X-414809Y193206D01*
X-551412Y229921D02*
Y230191D01*
X-548119Y100375D02*
X-535966D01*
X-207000Y128299D02*
Y193397D01*
X-178886Y100184D02*
X-166158D01*
X-22882Y177923D02*
X-11166Y166207D01*
X67303Y337772D02*
X75180Y345649D01*
X91734Y27734D02*
Y28440D01*
M02*
