G04*
G04 #@! TF.GenerationSoftware,Altium Limited,Altium Designer,25.8.1 (18)*
G04*
G04 Layer_Physical_Order=1*
G04 Layer_Color=255*
%FSLAX44Y44*%
%MOMM*%
G71*
G04*
G04 #@! TF.SameCoordinates,C759EE04-39D3-4D0C-B5B0-0D6C31F46B31*
G04*
G04*
G04 #@! TF.FilePolarity,Positive*
G04*
G01*
G75*
%ADD15C,6.0000*%
%ADD16C,3.0000*%
%ADD17C,1.8000*%
%ADD18C,2.1000*%
%ADD19P,2.9699X4X270.0*%
%ADD20C,1.8000*%
%ADD21C,2.0000*%
D15*
X-1020000Y-57500D02*
D03*
Y482500D02*
D03*
X-2140000D02*
D03*
X100000D02*
D03*
Y-57500D02*
D03*
X-2140000D02*
D03*
D16*
X-293000Y-2000D02*
D03*
X96000Y30000D02*
D03*
D17*
X-10000Y110000D02*
D03*
X30000D02*
D03*
X-350000Y70000D02*
D03*
X-350000Y110000D02*
D03*
X-700000D02*
D03*
Y70000D02*
D03*
X-20000Y510000D02*
D03*
Y470000D02*
D03*
X-100000Y110000D02*
D03*
X-60000Y110000D02*
D03*
X-400000Y510000D02*
D03*
X-400000Y470000D02*
D03*
X-420000Y110000D02*
D03*
X-420000Y70000D02*
D03*
X-710000Y510000D02*
D03*
Y470000D02*
D03*
X-770000Y110000D02*
D03*
Y70000D02*
D03*
X-90000Y510000D02*
D03*
Y470000D02*
D03*
X-190000Y110000D02*
D03*
X-150000D02*
D03*
X-480000Y510000D02*
D03*
X-480000Y470000D02*
D03*
X-490000Y110000D02*
D03*
X-490000Y70000D02*
D03*
X-780000Y510000D02*
D03*
X-780000Y470000D02*
D03*
X-840000Y110000D02*
D03*
Y70000D02*
D03*
X-160000Y510000D02*
D03*
Y470000D02*
D03*
X-280000Y110000D02*
D03*
X-240000Y110000D02*
D03*
X-550000Y510000D02*
D03*
X-550000Y470000D02*
D03*
X-560000Y110000D02*
D03*
X-560000Y70000D02*
D03*
X-850000Y510000D02*
D03*
X-850000Y470000D02*
D03*
X-910000Y110000D02*
D03*
Y70000D02*
D03*
X-230000Y510000D02*
D03*
X-230000Y470000D02*
D03*
X-270000Y210000D02*
D03*
X-270000Y170000D02*
D03*
X-620000Y510000D02*
D03*
X-620000Y470000D02*
D03*
X-630000Y110000D02*
D03*
X-630000Y70000D02*
D03*
X-920000Y510000D02*
D03*
X-920000Y470000D02*
D03*
X-980000Y110000D02*
D03*
Y70000D02*
D03*
X-1060000Y70000D02*
D03*
Y110000D02*
D03*
X-1430000Y110000D02*
D03*
X-1430000Y70000D02*
D03*
X-1770000Y510000D02*
D03*
X-1770000Y470000D02*
D03*
X-1120000D02*
D03*
Y510000D02*
D03*
X-1130000Y70000D02*
D03*
Y110000D02*
D03*
X-1440000Y470000D02*
D03*
X-1440000Y510000D02*
D03*
X-1500000Y70000D02*
D03*
Y110000D02*
D03*
X-1840000Y470000D02*
D03*
X-1840000Y510000D02*
D03*
X-1830000Y70000D02*
D03*
X-1830000Y110000D02*
D03*
X-1200000Y470000D02*
D03*
Y510000D02*
D03*
Y70000D02*
D03*
Y110000D02*
D03*
X-1510000Y470000D02*
D03*
Y510000D02*
D03*
X-1570000Y70000D02*
D03*
Y110000D02*
D03*
X-1910000Y470000D02*
D03*
Y510000D02*
D03*
X-1900000Y70000D02*
D03*
Y110000D02*
D03*
X-1270000Y470000D02*
D03*
Y510000D02*
D03*
X-1270000Y70000D02*
D03*
Y110000D02*
D03*
X-1580000Y470000D02*
D03*
Y510000D02*
D03*
X-1640000Y70000D02*
D03*
Y110000D02*
D03*
X-1970000Y470000D02*
D03*
Y510000D02*
D03*
Y70000D02*
D03*
Y110000D02*
D03*
X-1340000Y470000D02*
D03*
Y510000D02*
D03*
Y70000D02*
D03*
Y110000D02*
D03*
X-1650000Y470000D02*
D03*
Y510000D02*
D03*
X-1710000Y70000D02*
D03*
Y110000D02*
D03*
X-2040000Y470000D02*
D03*
Y510000D02*
D03*
Y70000D02*
D03*
Y110000D02*
D03*
D18*
X-1906109Y241110D02*
D03*
X-1845000Y280000D02*
D03*
X-1858397Y330000D02*
D03*
X-1895000Y366603D02*
D03*
X-2045000Y280000D02*
D03*
X-2031603Y230000D02*
D03*
X-1995000Y193397D02*
D03*
X-1945000Y180000D02*
D03*
X-1895000Y193397D02*
D03*
X-1858397Y230000D02*
D03*
X-1488397D02*
D03*
X-1525000Y193397D02*
D03*
X-1575000Y180000D02*
D03*
X-1625000Y193397D02*
D03*
X-1661603Y230000D02*
D03*
X-1675000Y280000D02*
D03*
X-1525000Y366603D02*
D03*
X-1488397Y330000D02*
D03*
X-1475000Y280000D02*
D03*
X-1536109Y241110D02*
D03*
X-796109D02*
D03*
X-734999Y280000D02*
D03*
X-748397Y330000D02*
D03*
X-785000Y366603D02*
D03*
X-935001Y280000D02*
D03*
X-921603Y230000D02*
D03*
X-885000Y193397D02*
D03*
X-835000Y180000D02*
D03*
X-785000Y193397D02*
D03*
X-748397Y230000D02*
D03*
X-1118397D02*
D03*
X-1155000Y193397D02*
D03*
X-1205000Y180000D02*
D03*
X-1255000Y193397D02*
D03*
X-1291603Y230000D02*
D03*
X-1305000Y280000D02*
D03*
X-1155000Y366603D02*
D03*
X-1118397Y330000D02*
D03*
X-1104999Y280000D02*
D03*
X-1166109Y241110D02*
D03*
X-426109D02*
D03*
X-365000Y280000D02*
D03*
X-378397Y330000D02*
D03*
X-415000Y366603D02*
D03*
X-565000Y280000D02*
D03*
X-551603Y230000D02*
D03*
X-515000Y193397D02*
D03*
X-465000Y180000D02*
D03*
X-415000Y193397D02*
D03*
X-378397Y230000D02*
D03*
X-8397D02*
D03*
X-45000Y193397D02*
D03*
X-95000Y180000D02*
D03*
X-145000Y193397D02*
D03*
X-181603Y230000D02*
D03*
X-195000Y280000D02*
D03*
X-45000Y366603D02*
D03*
X-8397Y330000D02*
D03*
X5001Y280000D02*
D03*
X-56109Y241110D02*
D03*
D19*
X-1945000Y380000D02*
D03*
X-1575000D02*
D03*
X-835000D02*
D03*
X-1205000D02*
D03*
X-465000D02*
D03*
X-95000D02*
D03*
D20*
X-230000Y470000D02*
X-195000D01*
X-160000D02*
X-125000D01*
X-130000D02*
X-100000Y440000D01*
X-160000Y470000D02*
X-130000D01*
X-90000D02*
X-55000D01*
X-60000D02*
X30000Y380000D01*
X-60000Y470000D02*
X-20000Y510000D01*
X-200000Y470000D02*
X-160000Y510000D01*
X-130000Y470000D02*
X-90000Y510000D01*
X-200000Y470000D02*
X-140000Y410000D01*
X-140000D01*
X-230000Y470000D02*
X-200000D01*
X-100000Y440000D02*
X-80000D01*
X-140000Y410000D02*
X-88397D01*
X-45000Y366603D01*
X-80000Y440000D02*
X-8397Y368397D01*
Y330000D02*
Y368397D01*
X-1930000Y110000D02*
X-1900000D01*
X-1970000Y70000D02*
X-1930000Y110000D01*
X-2000000D02*
X-1970000D01*
X-2040000Y70000D02*
X-2000000Y110000D01*
X-2040000D02*
Y140000D01*
X-2080000Y180000D02*
X-2040000Y140000D01*
X-2080000Y180000D02*
Y245000D01*
X-2045000Y280000D01*
X-2000000Y110000D02*
Y140000D01*
X-2031603Y171603D02*
X-2000000Y140000D01*
X-2031603Y171603D02*
Y230000D01*
X-1995000Y193397D02*
X-1994426Y192823D01*
Y174426D02*
Y192823D01*
Y174426D02*
X-1960000Y140000D01*
X-1830000Y70000D02*
X-1806603Y93397D01*
Y193397D01*
X5001Y280000D02*
Y280812D01*
X30000Y305811D01*
Y380000D01*
X-1960000Y140000D02*
X-1960000D01*
X-1930000Y110000D01*
X-1935000D02*
X-1905000Y110000D01*
D21*
X-260000Y410000D02*
Y480000D01*
X-230000Y510000D01*
X-200000Y540000D02*
X-165000D01*
X-230000Y510000D02*
X-200000Y540000D01*
X-260000Y410000D02*
X-230000Y380000D01*
X-1525000Y366603D02*
Y375000D01*
X-1620000Y470000D02*
X-1568397Y418397D01*
X-1510000Y470000D02*
X-1480000D01*
X-1680000Y490000D02*
X-1630000Y540000D01*
X-1365000Y485000D02*
X-1310000Y540000D01*
X-270000Y210000D02*
Y225000D01*
X-650000Y480000D02*
X-590000Y540000D01*
X-165000D02*
X10000D01*
X-270000Y225000D02*
X-215000Y280000D01*
X-195000D01*
X-970000Y245000D02*
X-935001Y280000D01*
X-980000Y70000D02*
X-950000D01*
X-910000Y110000D01*
Y70000D02*
X-880000D01*
X-840000Y110000D01*
X-885000Y193397D02*
X-884809Y193206D01*
X-785000Y193397D02*
X-730000Y138397D01*
X-884809Y154809D02*
Y193206D01*
X-840000Y70000D02*
X-810000D01*
X-770000Y110000D01*
X-1170000Y70000D02*
X-1130000Y110000D01*
X-1200000Y70000D02*
X-1170000D01*
X-1205000Y180000D02*
X-1204809Y179808D01*
X-1199808D01*
X-1130000Y110000D01*
X-1254809Y164809D02*
Y193206D01*
Y164809D02*
X-1200000Y110000D01*
X-1060000D02*
Y171603D01*
X-1118397Y230000D02*
X-1060000Y171603D01*
X-1100000Y100000D02*
Y138397D01*
X-1155000Y193397D02*
X-1100000Y138397D01*
X-1070000Y70000D02*
X-1060000D01*
X-1100000Y100000D02*
X-1070000Y70000D01*
X-1130000D02*
X-1100000Y100000D01*
X-1255000Y193397D02*
X-1254809Y193206D01*
X-1240000Y70000D02*
X-1200000Y110000D01*
X-1270000Y70000D02*
X-1240000D01*
X-1310000D02*
X-1270000Y110000D01*
X-1340000Y70000D02*
X-1310000D01*
X-1291603Y131603D02*
X-1270000Y110000D01*
X-1291603Y131603D02*
Y230000D01*
X-1340000Y110000D02*
Y245000D01*
X-1305000Y280000D01*
X-1540000Y70000D02*
X-1500000Y110000D01*
X-1570000Y70000D02*
X-1540000D01*
X-1575000Y180000D02*
X-1574809Y179808D01*
X-1569808D01*
X-1500000Y110000D01*
X-1624809Y164809D02*
Y193206D01*
Y164809D02*
X-1570000Y110000D01*
X-1488397Y230000D02*
X-1430000Y171603D01*
X-1470000Y100000D02*
Y138397D01*
X-1525000Y193397D02*
X-1470000Y138397D01*
X-1440000Y70000D02*
X-1430000D01*
X-1470000Y100000D02*
X-1440000Y70000D01*
X-1500000D02*
X-1470000Y100000D01*
X-1625000Y193397D02*
X-1624809Y193206D01*
X-1610000Y70000D02*
X-1570000Y110000D01*
X-1640000Y70000D02*
X-1610000D01*
X-1680000D02*
X-1640000Y110000D01*
X-1710000Y70000D02*
X-1680000D01*
X-1661603Y131603D02*
X-1640000Y110000D01*
X-1661603Y131603D02*
Y230000D01*
X-1710000Y110000D02*
Y245000D01*
X-1675000Y280000D01*
X-415000Y193397D02*
X-380000Y158397D01*
X-490000Y70000D02*
X-460000D01*
X-420000Y110000D01*
X-630000Y70000D02*
X-600000D01*
X-560000Y110000D01*
X-734999Y280000D02*
Y280271D01*
X-378206Y230191D02*
X-349809D01*
X-378397Y230000D02*
X-378206Y230191D01*
X-1118397Y230000D02*
X-1118127D01*
X-1098126Y250000D01*
X-1080000D01*
X-1050000Y280000D01*
X-1104999D02*
Y280271D01*
X-1080000Y305270D01*
X-1300000Y380000D02*
X-1205000D01*
X-1230000Y510000D02*
X-1200000D01*
X-1264349Y475651D02*
X-1230000Y510000D01*
X-1050000Y280000D02*
Y390000D01*
X-1540000Y510000D02*
X-1510000D01*
X-1620000Y470000D02*
X-1580000Y510000D01*
X-1568397Y418397D02*
X-1525000Y375000D01*
X-1460000Y295270D02*
Y390000D01*
X-1475000Y280271D02*
X-1460000Y295270D01*
X-1475000Y280000D02*
Y280271D01*
X-1450000Y250000D02*
X-1430000Y270000D01*
X-1468126Y250000D02*
X-1450000D01*
X-1488127Y230000D02*
X-1468126Y250000D01*
X-1488397Y230000D02*
X-1488127D01*
X-1430000Y110000D02*
Y171603D01*
X-1190000Y350000D02*
X-1150000Y310000D01*
Y257489D02*
Y310000D01*
X-1166109Y241380D02*
X-1150000Y257489D01*
X-1166109Y241110D02*
Y241380D01*
X-810000Y340000D02*
X-780000Y310000D01*
Y257489D02*
Y310000D01*
X-796109Y241380D02*
X-780000Y257489D01*
X-796109Y241110D02*
Y241380D01*
X-230000Y380000D02*
X-95000D01*
X-570000Y340000D02*
X-530000Y300000D01*
Y260000D02*
Y300000D01*
X-447219Y220000D02*
X-426109Y241110D01*
X-426109D01*
X-490000Y220000D02*
X-447219D01*
X-530000Y260000D02*
X-490000Y220000D01*
X-580000Y380000D02*
X-465000D01*
X-1490000Y470000D02*
X-1485000Y465000D01*
X-1430000Y270000D02*
Y410000D01*
X-1395000Y385000D02*
X-1360000Y350000D01*
X-1190000D01*
X-1270000Y470000D02*
X-1240651Y440651D01*
X-1118397Y330000D02*
Y373397D01*
X-1080000Y305270D02*
Y380000D01*
X-950000Y340000D02*
X-810000D01*
X-900001Y380000D02*
X-835000D01*
X-940000Y510000D02*
X-920000D01*
X-890000Y540000D01*
X-850000Y470000D02*
X-810000Y510000D01*
X-780000D01*
X-780000Y470000D02*
X-740000Y510000D01*
X-710000D01*
X-920000Y470000D02*
X-870000Y420000D01*
X-920000Y470000D02*
X-880000Y510000D01*
X-850000D01*
X-710000Y305270D02*
Y370000D01*
X-734999Y280271D02*
X-710000Y305270D01*
X-748397Y230000D02*
X-729199Y210801D01*
X-680000Y260000D01*
X-890000Y540000D02*
X-700000D01*
X-680000Y260000D02*
Y380000D01*
X-550000Y470000D02*
X-520000D01*
X-480000Y510000D01*
X-955000Y435000D02*
X-900001Y380000D01*
X-955000Y495000D02*
X-940000Y510000D01*
X-955000Y435000D02*
Y495000D01*
X-870000Y420000D02*
X-838397D01*
X-785000Y366603D01*
X-748397Y330000D02*
Y368397D01*
X-850000Y470000D02*
X-748397Y368397D01*
X-780000Y440000D02*
Y470000D01*
Y440000D02*
X-710000Y370000D01*
X-700000Y540000D02*
X-680000Y520000D01*
Y420000D02*
Y520000D01*
X-710000Y410000D02*
Y470000D01*
Y410000D02*
X-680000Y380000D01*
X-680000Y420000D02*
X-600000Y340000D01*
X-570000D01*
X-650000Y450000D02*
X-580000Y380000D01*
X-650000Y450000D02*
Y480000D01*
X-620000Y470000D02*
X-590000D01*
X-550000Y510000D01*
X-590000Y440000D02*
Y470000D01*
Y440000D02*
X-560000Y410000D01*
X-520000Y451716D02*
Y470000D01*
Y451716D02*
X-508284Y440000D01*
X-560000Y410000D02*
X-458397D01*
X-415000Y366603D01*
X-508284Y440000D02*
X-450000D01*
X-378397Y330000D02*
Y368397D01*
X-450000Y440000D02*
X-378397Y368397D01*
X-480000Y470000D02*
X-440000D01*
X-365000Y280271D02*
X-350000Y295270D01*
X-365000Y280000D02*
Y280271D01*
X-440000Y470000D02*
X-400000Y510000D01*
X10000Y230000D02*
X60000Y280000D01*
X-8397Y230000D02*
X10000D01*
X-8397Y230000D02*
X-8397Y230000D01*
X-440000Y470000D02*
X-350000Y380000D01*
Y295270D02*
Y380000D01*
X-349809Y230191D02*
X-320000Y260000D01*
X-56380Y241110D02*
X-56109D01*
X-77489Y220000D02*
X-56380Y241110D01*
X-371716Y540000D02*
X-290000Y458284D01*
X-590000Y540000D02*
X-371716D01*
X-400000Y470000D02*
X-320000Y390000D01*
Y260000D02*
Y390000D01*
X-120000Y220000D02*
X-77489D01*
X-160000Y260000D02*
X-120000Y220000D01*
X-290000Y370000D02*
Y458284D01*
Y370000D02*
X-240000Y320000D01*
X-1488397Y330000D02*
Y378397D01*
X-1610000Y380000D02*
X-1575000D01*
X-1536109Y241110D02*
Y241380D01*
X-1520000Y257489D01*
Y300000D01*
X-1560000Y340000D02*
X-1520000Y300000D01*
X-1620000Y340000D02*
X-1560000D01*
X-2010000Y540000D02*
X-1740000D01*
X-2040000Y510000D02*
X-2010000Y540000D01*
X-2040000Y470000D02*
X-2000000Y510000D01*
X-1970000D01*
Y470000D02*
X-1950000D01*
X-1910000Y510000D01*
Y470000D02*
X-1870000Y510000D01*
X-1840000D01*
X-1840000Y470000D02*
X-1770000D01*
X-1858206Y230191D02*
X-1819809D01*
X-1858397Y230000D02*
X-1858206Y230191D01*
X-1770000Y280000D02*
Y470000D01*
X-1819809Y230191D02*
X-1770000Y280000D01*
X-1770000Y510000D02*
Y510000D01*
X-1895000Y193397D02*
X-1806603D01*
X-1860000Y110000D02*
X-1830000D01*
X-1900000Y70000D02*
X-1860000Y110000D01*
X-1945000Y180000D02*
X-1915000Y150000D01*
X-1900000D01*
X-1860000Y110000D01*
X-1910000Y470000D02*
X-1880000Y440000D01*
X-1850000D01*
X-1810000Y400000D01*
Y315000D02*
Y400000D01*
X-1845000Y280000D02*
X-1810000Y315000D01*
X-1858397Y330000D02*
Y378397D01*
X-1950000Y470000D02*
X-1858397Y378397D01*
X-1948397Y420000D02*
X-1895000Y366603D01*
X-1990000Y420000D02*
X-1948397D01*
X-2040000Y470000D02*
X-1990000Y420000D01*
X-2020000Y380000D02*
X-1945000D01*
X-2070000Y430000D02*
X-2020000Y380000D01*
X-2070000Y430000D02*
Y480000D01*
X-2060024Y489976D01*
X-2060024D01*
X-2040000Y510000D01*
X-1070000Y460000D02*
X-950000Y340000D01*
X-1070000Y460000D02*
Y500000D01*
X-1110000Y540000D02*
X-1070000Y500000D01*
X-1120000Y460000D02*
Y470000D01*
Y460000D02*
X-1050000Y390000D01*
X-1200000Y470000D02*
X-1170000D01*
X-1198397Y410000D02*
X-1155000Y366603D01*
X-1240651Y440651D02*
X-1185651D01*
X-1118397Y373397D01*
X-1310000Y540000D02*
X-1110000D01*
X-1365000Y445000D02*
Y485000D01*
Y445000D02*
X-1300000Y380000D01*
X-1420000Y540000D02*
X-1395000Y515000D01*
X-1630000Y540000D02*
X-1420000D01*
X-1395000Y385000D02*
Y515000D01*
X-1440000Y420000D02*
Y470000D01*
Y420000D02*
X-1430000Y410000D01*
X-1480000Y470000D02*
X-1440000Y510000D01*
X-1480000Y410000D02*
X-1460000Y390000D01*
X-1480000Y410000D02*
Y470000D01*
X-1580000D02*
X-1540000Y510000D01*
X-1580000Y470000D02*
X-1488397Y378397D01*
X-1650000Y470000D02*
X-1620000D01*
X-1680000Y450000D02*
X-1610000Y380000D01*
X-1680000Y450000D02*
Y490000D01*
X-1770000Y510000D02*
X-1740000Y480000D01*
X-1806603Y193397D02*
X-1740000Y260000D01*
Y480000D01*
Y540000D02*
X-1710000Y510000D01*
Y430000D02*
Y510000D01*
Y430000D02*
X-1620000Y340000D01*
X-240000Y320000D02*
X-195000D01*
X-160000Y285000D01*
Y260000D02*
Y285000D01*
X-349809Y110191D02*
Y230191D01*
X-350000Y110000D02*
X-349809Y110191D01*
X-420000Y70000D02*
X-380000D01*
X-350000D02*
X-350000Y70000D01*
X-380000Y70000D02*
X-350000D01*
X-380000D02*
Y158397D01*
X-465000Y180000D02*
X-420000Y135000D01*
Y110000D02*
Y135000D01*
X-560000Y70000D02*
X-520000Y110000D01*
X-490000D01*
X-560000D02*
Y221603D01*
X-551603Y230000D01*
X-630000Y110000D02*
Y220000D01*
X-570000Y280000D01*
X-700000Y110000D02*
Y181603D01*
X-729199Y210801D02*
X-700000Y181603D01*
X-770000Y70000D02*
X-730000D01*
X-700000D02*
X-700000Y70000D01*
X-730000Y70000D02*
X-700000D01*
X-730000D02*
Y138397D01*
X-835000Y180000D02*
X-770000Y115000D01*
Y110000D02*
Y115000D01*
X-884809Y154809D02*
X-840000Y110000D01*
X-921603Y121603D02*
Y230000D01*
Y121603D02*
X-910000Y110000D01*
X-970000Y120000D02*
Y245000D01*
X-980000Y110000D02*
X-970000Y120000D01*
X-270000Y170000D02*
X-241603D01*
X-181603Y230000D01*
X-280000Y110000D02*
X-270000Y120000D01*
Y170000D01*
X-240000Y110000D02*
X-190000D01*
X-190000Y110000D01*
X-173476Y126524D01*
Y164651D01*
X-145000Y193127D01*
Y193397D01*
X-150000Y110000D02*
X-100000D01*
X-95191Y114809D01*
Y179808D01*
X-95000Y180000D01*
X-60000Y110000D02*
X-60000Y110000D01*
X-10000D01*
X-60000Y110000D02*
Y138126D01*
X-45191Y152935D01*
Y193206D01*
X-45000Y193397D01*
X30000Y110000D02*
Y210000D01*
X10000Y230000D02*
X30000Y210000D01*
X60000Y280000D02*
Y390000D01*
X-20000Y470000D02*
X60000Y390000D01*
X10000Y540000D02*
X40000Y510000D01*
Y460000D02*
Y510000D01*
Y460000D02*
X110000Y390000D01*
Y41716D02*
Y390000D01*
X98284Y30000D02*
X110000Y41716D01*
X96000Y30000D02*
X98284D01*
X-2058000Y-2000D02*
X-293000D01*
X-2110000Y50000D02*
X-2058000Y-2000D01*
X-2110000Y50000D02*
Y260000D01*
X-2060000Y310000D01*
X-2035000D01*
X-2010000Y285000D01*
Y260000D02*
Y285000D01*
Y260000D02*
X-1970000Y220000D01*
X-1927219D01*
X-1906109Y241110D01*
X-1906109D01*
X-475000Y470000D02*
X-435000Y470000D01*
X-1170000Y470000D02*
X-1130000Y510000D01*
X-1120000D01*
X-1165000Y465000D02*
X-1080000Y380000D01*
X-1170000Y470000D02*
X-1165000Y465000D01*
X-1195000Y470000D02*
X-1165000Y470000D01*
X-1310000Y470000D02*
X-1270000Y510000D01*
X-1340000Y470000D02*
X-1310000D01*
X-1250000Y410000D01*
X-1198397D01*
X-1335000Y470000D02*
X-1305000Y470000D01*
X-1645000Y470000D02*
X-1615000Y470000D01*
X-1965000D02*
X-1945000D01*
X-1865000Y110000D02*
X-1835000D01*
X-1470000Y95000D02*
Y133397D01*
X-1100000Y95000D02*
Y133397D01*
X-520000Y110000D02*
Y188127D01*
X-515000Y193127D01*
Y193397D01*
X-3397Y230000D02*
X15000Y230000D01*
M02*
